<?xml version="1.0" encoding="UTF-8" standalone="no"?>
<!-- Created with Inkscape (http://www.inkscape.org/) -->

<svg
   xmlns:dc="http://purl.org/dc/elements/1.1/"
   xmlns:cc="http://creativecommons.org/ns#"
   xmlns:rdf="http://www.w3.org/1999/02/22-rdf-syntax-ns#"
   xmlns:svg="http://www.w3.org/2000/svg"
   xmlns="http://www.w3.org/2000/svg"
   xmlns:sodipodi="http://sodipodi.sourceforge.net/DTD/sodipodi-0.dtd"
   xmlns:inkscape="http://www.inkscape.org/namespaces/inkscape"
   width="64px"
   height="64px"
   id="svg3188"
   version="1.1"
   inkscape:version="0.48.5 r10040"
   sodipodi:docname="iconRRBlack.svg">
  <defs
     id="defs3190" />
  <sodipodi:namedview
     id="base"
     pagecolor="#ffffff"
     bordercolor="#666666"
     borderopacity="1.0"
     inkscape:pageopacity="0.0"
     inkscape:pageshadow="2"
     inkscape:zoom="5.5"
     inkscape:cx="71.683416"
     inkscape:cy="24.041916"
     inkscape:current-layer="g3261"
     showgrid="true"
     inkscape:document-units="px"
     inkscape:grid-bbox="true"
     inkscape:window-width="1366"
     inkscape:window-height="744"
     inkscape:window-x="0"
     inkscape:window-y="0"
     inkscape:window-maximized="1" />
  <metadata
     id="metadata3193">
    <rdf:RDF>
      <cc:Work
         rdf:about="">
        <dc:format>image/svg+xml</dc:format>
        <dc:type
           rdf:resource="http://purl.org/dc/dcmitype/StillImage" />
        <dc:title></dc:title>
      </cc:Work>
    </rdf:RDF>
  </metadata>
  <g
     id="layer1"
     inkscape:label="Layer 1"
     inkscape:groupmode="layer">
    <g
       id="g3261"
       transform="matrix(0.71653559,0,0,0.71653559,-25.064568,-0.74197934)">
      <path
         d="M 106.16438,382.12008 C 18.760961,312.34685 4.4688683,184.92999 74.242102,97.526567 105.57985,58.270445 150.3891,32.062422 199.96707,23.992578"
         sodipodi:ry="202.5"
         sodipodi:rx="202.5"
         sodipodi:cy="223.86218"
         sodipodi:cx="232.5"
         id="path3051-3-9-7-7-0"
         style="fill:#000000;fill-opacity:1"
         sodipodi:type="arc"
         transform="matrix(0.21856495,0,0,0.21602312,29.301364,-2.5412253)"
         sodipodi:start="2.2444934"
         sodipodi:end="4.5510333"
         sodipodi:open="true" />
      <g
         style="fill:#000000"
         transform="matrix(0.21602312,0,0,0.21602312,40.178754,-4.0533853)"
         id="g3045-5-4-7">
        <g
           transform="matrix(4.9151746,0,0,5.1749728,-192.08113,-218.58063)"
           style="font-size:77.48709868999998207px;font-style:normal;font-weight:normal;line-height:125%;letter-spacing:0px;word-spacing:0px;fill:#000000;fill-opacity:1;stroke:none;font-family:Sans"
           id="text2993-4-4-5">
          <path
             d="m 76.319518,104.27599 c -0.671558,0 -0.949366,-1.13694 -0.697384,-0.69738 l 3.719381,-12.552911 c 0.309941,-1.084805 0.671547,-2.324597 1.084819,-3.71938 0.464914,-1.39475 0.878178,-2.737858 1.239794,-4.029329 0.413254,-1.343088 0.749032,-2.531222 1.007332,-3.564407 0.25828,-1.084794 0.387425,-1.808006 0.387435,-2.169639 -1e-5,-0.413237 -0.129155,-0.749014 -0.387435,-1.007332 -0.206642,-0.30992 -0.516591,-0.464894 -0.929845,-0.464923 -0.103326,2.9e-5 -0.361616,-0.07746 -0.774871,-0.232461 -0.413273,-0.154945 -0.594076,-0.413236 -0.54241,-0.774871 0.103308,-0.361577 0.619888,-0.852328 1.549742,-1.472255 0.929835,-0.671523 2.712036,-1.472222 5.34661,-2.4021 0.723197,-0.258257 1.343093,-0.309915 1.85969,-0.154974 0.516564,0.155007 0.929828,0.413297 1.239794,0.774871 0.30993,0.361639 0.542391,0.774903 0.697384,1.239794 0.154955,0.464953 0.232442,0.878217 0.232461,1.239793 -1.9e-5,0.723242 -0.335796,1.988864 -1.007332,3.796868 -0.619914,1.756399 -1.394785,3.900206 -2.324613,6.431429 -0.392279,0.593073 0.372993,1.113677 0.722795,0.526452 0.464905,-1.084799 1.240194,-2.463608 2.06674,-4.013371 0.82651,-1.549717 1.756354,-3.0478 2.789536,-4.494252 1.033139,-1.498055 2.195444,-2.763676 3.486919,-3.796868 1.291426,-1.033129 2.634534,-1.549709 4.02933,-1.549742 1.13645,3.3e-5 2.14378,0.387468 3.022,1.162307 0.92981,0.774902 1.39473,1.782233 1.39476,3.021997 -3e-5,0.671583 -0.12917,1.317308 -0.38743,1.937177 -0.20667,0.619923 -0.49079,1.162332 -0.85236,1.627229 -0.36164,0.464948 -0.74907,0.826554 -1.16231,1.084819 -0.36163,0.258315 -0.72324,0.38746 -1.08482,0.387436 -1.08484,2.4e-5 -1.9372,-0.206608 -2.55707,-0.619897 -0.309975,-0.206607 -0.299271,-0.239208 -0.609193,-0.445866 -0.974182,-1.185533 -0.147388,-0.250845 -1.076211,-1.273304 -1.032189,0.413349 -1.801539,1.125127 -2.576386,1.796657 -0.774893,0.671579 -1.549763,1.523936 -2.324613,2.557075 -0.774891,0.981524 -1.523932,2.066342 -2.247126,3.254458 -0.671572,1.188153 -1.213982,2.272971 -1.627229,3.254458 -0.413281,0.929859 -0.826545,1.96302 -1.239794,3.099484 -0.413279,1.136488 -0.852372,2.427939 -1.31728,3.874355 -1.151278,3.227221 -2.666114,8.188233 0.176458,11.394893 -0.154986,0.36161 -3.146808,-3.02629 -3.663378,-3.02629 l -6.66389,0"
             style="font-variant:normal;font-stretch:normal;fill:#000000;font-family:Amperzand;-inkscape-font-specification:Amperzand"
             id="path3037-7-2-0"
             inkscape:connector-curvature="0"
             sodipodi:nodetypes="ccccccccccccccccccccscsccccccccccsccccccsc" />
        </g>
        <g
           transform="matrix(4.7076299,0,0,5.4031213,-192.08113,-218.58063)"
           style="font-size:58.65277100000000132px;font-style:normal;font-weight:normal;line-height:125%;letter-spacing:0px;word-spacing:0px;fill:#000000;fill-opacity:1;stroke:none;font-family:Sans"
           id="text2999-2-5-4">
          <path
             d="m 61.59726,59.084749 c 0.273685,-0.782002 0.0032,0.01018 0.92195,-2.613219 0.534953,-1.687272 0.09451,-0.222108 0.6248,-1.891316 0.306564,-0.724537 0.06587,-0.508166 5.784846,-0.539606 2.502481,4e-5 4.965895,0.07824 7.390249,0.234611 2.463372,0.156447 4.594421,0.684321 6.393152,1.583625 1.720432,0.860278 2.932588,1.916026 3.636472,3.16725 0.742883,1.21219 1.11435,2.443897 1.114403,3.695124 -5.3e-5,1.016678 -0.254215,2.091978 -0.762486,3.225903 -0.469274,1.13398 -1.231759,2.22883 -2.287458,3.284555 -1.016697,1.055773 -2.307057,2.013767 -3.871083,2.873986 -1.564119,0.860261 -3.421454,1.48589 -5.572013,1.876888 0.781995,2.267925 1.681337,4.711788 2.698027,7.331597 1.055706,2.580731 2.189658,5.122349 3.401861,7.62486 0.97897,2.079688 2.580673,4.86818 3.988388,7.096985 1.407615,2.228801 2.873933,4.105688 4.398958,5.630668 1.798628,1.83778 3.460455,3.14769 4.985486,3.92974 1.564012,0.78202 3.128084,1.17304 4.692221,1.17305 0.899277,-1e-5 1.720417,-0.13687 2.463417,-0.41057 0.74287,-0.23462 1.3685,-0.56699 1.87689,-0.9971 0.50825,-0.39103 0.87972,-0.86025 1.1144,-1.40766 -0.55461,0.0151 -2.35672,-0.37506 -3.06307,-2.02418 -0.46509,-1.13911 0.06,-2.453714 1.08077,-3.232772 1.19754,-0.714114 1.70479,-0.828073 3.49239,-0.650937 1.24925,0.520879 1.35218,0.688516 2.11943,1.879275 0.36057,0.628194 0.27758,1.116594 0.27765,1.820434 -7e-5,1.09485 -0.34892,2.11041 -0.85718,3.08797 -0.50839,1.01664 -1.25133,1.89643 -2.2288,2.63937 -0.93851,0.78203 -2.11157,1.3881 -3.51917,1.81824 -1.36863,0.46921 -2.913149,0.70382 -4.633565,0.70383 -1.525034,-1e-5 -2.95225,-0.11732 -4.281653,-0.35191 -1.32952,-0.23463 -2.619879,-0.62565 -3.871083,-1.17306 -1.251312,-0.50834 -2.50257,-1.21217 -3.753777,-2.1115 -1.212207,-0.86025 -2.463465,-1.9551 -3.753777,-3.28455 -1.016694,-1.05576 -2.013791,-2.32657 -2.991292,-3.812435 -0.977639,-1.446771 -1.916082,-3.010843 -2.815383,-4.69222 -0.899383,-1.681379 -1.759622,-3.421409 -2.580722,-5.220097 -0.782074,-1.798679 -1.505458,-3.538709 -2.170152,-5.220096 -0.664767,-1.72047 -1.251295,-3.323645 -1.759583,-4.809527 -0.469257,-1.485855 -0.860275,-2.756664 -1.173056,-3.81243 -0.117339,-0.391001 -0.293297,-0.664713 -0.527875,-0.821139 -0.195542,-0.156389 -0.527907,-0.265845 -0.997097,-0.265864 -0.384587,-0.05207 -0.633255,-0.04037 -0.997097,-0.0274 -0.531148,-0.0037 -1.459201,1.603755 -1.685258,2.368015 l -3.021424,9.688728 c -0.287743,0.948385 -0.542632,1.784674 -0.923984,3.075672 -0.195534,0.742938 -0.508349,1.407669 -0.938444,1.994194 -0.430145,0.586529 -1.075324,1.055751 -1.935542,1.407667 -0.82116,0.312814 -1.994214,0.449671 -3.519166,0.410569 -0.821157,-0.0391 -1.446786,-0.05865 -1.876889,-0.05865 -0.430137,0 -0.684298,-0.117305 -0.762486,-0.351916 -0.07822,-0.234611 -1.6e-5,-0.664731 0.234612,-1.290361 0.234594,-0.625628 0.58651,-1.583622 1.055749,-2.873986 L 61.59726,59.084749 m 3.986197,12.242858 c -0.169695,0.508008 0.314975,0.758527 0.706024,0.83671 0.390987,0.07822 0.821107,0.136877 1.290361,0.175958 0.469189,0.03912 0.938411,0.07822 1.407667,0.117305 0.508289,2.1e-5 0.938409,2.1e-5 1.290361,0 1.64224,2.1e-5 3.049905,-0.332344 4.222999,-0.997097 1.173015,-0.70381 2.131009,-1.544499 2.873986,-2.522069 0.742892,-0.977521 1.290317,-2.013719 1.642278,-3.108597 0.351872,-1.094823 0.52783,-2.052817 0.527875,-2.873985 -4.5e-5,-1.133923 -0.254207,-2.111468 -0.762486,-2.932639 -0.508368,-0.860206 -1.153548,-1.564039 -1.935542,-2.1115 -0.782078,-0.586491 -1.642318,-1.016611 -2.580722,-1.290361 -0.899381,-0.273676 -1.759621,-0.410532 -2.580722,-0.410569 -0.430157,3.7e-5 -0.840726,0.117342 -1.231708,0.351917 -0.351952,0.195545 -0.488688,0.534747 -0.566856,0.847526 l -3.863378,12.472665"
             style="fill:#000000;font-family:Amperzand;-inkscape-font-specification:Amperzand Bold"
             id="path3034-2-8-2"
             inkscape:connector-curvature="0"
             sodipodi:nodetypes="ccccccccccsccccccccccccccccccccccccccccccccccccccscccccccccccccccccccc" />
        </g>
      </g>
    </g>
  </g>
</svg>
